Coordinates
nRows=9
nColumns=34

# SIMM Motion File Header:
name Coordinates
datacolumns 34
datarows 9
otherdata 1
range 0.80000000000000004000 0.80800000000000005000
endheader
time	pelvis_tz	pelvis_tx	pelvis_ty	pelvis_tilt	pelvis_list	pelvis_rotation	hip_flexion_r	hip_adduction_r	hip_rotation_r	knee_r_tx	knee_r_ty	knee_angle_r	tib_pat_r_tx	tib_pat_r_ty	tib_pat_r_r1	ankle_angle_r	subtalar_angle_r	mtp_angle_r	hip_flexion_l	hip_adduction_l	hip_rotation_l	knee_l_tx	knee_l_ty	knee_angle_l	tib_pat_l_tx	tib_pat_l_ty	tib_pat_l_r1	ankle_angle_l	subtalar_angle_l	mtp_angle_l	lumbar_extension	lumbar_bending	lumbar_rotation
      0.80000000000000004000	      0.01740747999999999900	      0.60537591999999985000	      1.01702632999999980000	      4.55910818999999810000	     -0.24037817999999997000	      3.51800200000000010000	     17.11491746999999800000	     -1.02111755999999980000	     -6.95600038999999890000	     -0.00027870766691903904	     -0.45671453386298749000	    -23.93730289999999900000	      0.04572070709098759200	     -0.02150096098098809600	     14.53789910734438200000	      2.61940090000000000000	      0.00000000000000000000	      0.00000000000000000000	     -6.76281069999999930000	     -2.17545117000000010000	      0.76244962999999988000	      0.00387785226093048140	     -0.46261881077814349000	    -50.97769812999999300000	      0.03994187921150003900	     -0.02046297027204130300	     17.12067046188932900000	     -2.88971270999999950000	      0.00000000000000000000	      0.00000000000000000000	    -15.15525890999999900000	      3.66259286000000020000	     -6.25444983999999950000
      0.80100000000000005000	      0.01761917686001199600	      0.60538850053050519000	      1.01717610771013000000	      4.56061707408560760000	     -0.26789018472188408000	      3.51687095449485600000	     17.03252235710425900000	     -0.97407423031053209000	     -6.96183175855340330000	     -0.00028134915422844183	     -0.45671255328251736000	    -23.92454591810931300000	      0.04572289600688699700	     -0.02150145475824925100	     14.53542555073432400000	      2.68156118532342980000	      0.00000000000000000000	      0.00000000000000000000	     -6.57258597435205340000	     -2.23796193939622870000	      0.70293166377099303000	      0.00391498007368613460	     -0.46270836293562173000	    -51.30562352737664600000	      0.03986166236619138900	     -0.02045186551730453900	     17.13432633644496800000	     -3.03136656725197100000	      0.00000000000000000000	      0.00000000000000000000	    -15.15105146021544300000	      3.69492539348340720000	     -6.22558980535124280000
      0.80200000000000005000	      0.01783360673925619600	      0.60539323744195195000	      1.01732941280279520000	      4.56232481358978340000	     -0.29512917519129900000	      3.51561473727611420000	     16.94724122347419400000	     -0.92641175170978007000	     -6.96826640525257180000	     -0.00028527532252925914	     -0.45670962653545377000	    -23.90563847784159900000	      0.04572613286894943600	     -0.02150218569388810000	     14.53172829989385500000	      2.74097848419136090000	      0.00000000000000000000	      0.00000000000000000000	     -6.38300898228165890000	     -2.30205070850142320000	      0.64127686835550179000	      0.00394861540692467790	     -0.46279638154017005000	    -51.62219740252912500000	      0.03978330244334966900	     -0.02044127350539022900	     17.14616802418227000000	     -3.15859152190621280000	      0.00000000000000000000	      0.00000000000000000000	    -15.14751525556258600000	      3.72550995845000310000	     -6.19563228411834380000
      0.80300000000000005000	      0.01804810095774536700	      0.60539778970320590000	      1.01748280093517220000	      4.56403723443953440000	     -0.32236173850840399000	      3.51435557333330580000	     16.86189214872141700000	     -0.87873469744376764000	     -6.97471525399611370000	     -0.00028923173408780680	     -0.45670667751425337000	    -23.88658624684443800000	      0.04572939440118766600	     -0.02150292221257985000	     14.52800224151265100000	      2.80033120917139430000	      0.00000000000000000000	      0.00000000000000000000	     -6.19344723880111390000	     -2.36617662601327750000	      0.57957176887523143000	      0.00398216852211931770	     -0.46288436404265354000	    -51.93850404634981300000	      0.03970498623516172100	     -0.02043069356418719700	     17.15796700332507300000	     -3.28547679922192070000	      0.00000000000000000000	      0.00000000000000000000	    -15.14399485299573700000	      3.75605337369716530000	     -6.16564892645613490000
      0.80400000000000005000	      0.01826259517623454000	      0.60540234196445997000	      1.01763618906754920000	      4.56574965528928440000	     -0.34959430182550899000	      3.51309640939049750000	     16.77654307396863600000	     -0.83105764317775510000	     -6.98116410273965560000	     -0.00029318814564635446	     -0.45670372849305296000	    -23.86753401584727300000	      0.04573265593342589600	     -0.02150365873127160400	     14.52427618313144500000	      2.85968393415142770000	      0.00000000000000000000	      0.00000000000000000000	     -6.00388549532056980000	     -2.43030254352513130000	      0.51786666939496107000	      0.00401572163731395760	     -0.46297234654513697000	    -52.25481069017050100000	      0.03962667002697378000	     -0.02042011362298416400	     17.16976598246787900000	     -3.41236207653762860000	      0.00000000000000000000	      0.00000000000000000000	    -15.14047445042888800000	      3.78659678894432710000	     -6.13566556879392700000
      0.80500000000000005000	      0.01847708939472371400	      0.60540689422571392000	      1.01778957719992610000	      4.56746207613903540000	     -0.37682686514261399000	      3.51183724544768920000	     16.69119399921585900000	     -0.78338058891174267000	     -6.98761295148319660000	     -0.00029714455720490217	     -0.45670077947185256000	    -23.84848178485010800000	      0.04573591746566412600	     -0.02150439524996335500	     14.52055012475024000000	      2.91903665913146070000	      0.00000000000000000000	      0.00000000000000000000	     -5.81432375184002480000	     -2.49442846103698560000	      0.45616156991469070000	      0.00404927475250859740	     -0.46306032904762040000	    -52.57111733399119700000	      0.03954835381878583900	     -0.02040953368178112900	     17.18156496161068200000	     -3.53924735385333640000	      0.00000000000000000000	      0.00000000000000000000	    -15.13695404786203900000	      3.81714020419148930000	     -6.10568221113171820000
      0.80600000000000005000	      0.01869158361321288800	      0.60541144648696787000	      1.01794296533230310000	      4.56917449698878640000	     -0.40405942845971898000	      3.51057808150488080000	     16.60584492446308100000	     -0.73570353464573013000	     -6.99406180022673850000	     -0.00030110096876344983	     -0.45669783045065215000	    -23.82942955385294700000	      0.04573917899790235600	     -0.02150513176865510500	     14.51682406636903600000	      2.97838938411149410000	      0.00000000000000000000	      0.00000000000000000000	     -5.62476200835948070000	     -2.55855437854883940000	      0.39445647043442034000	      0.00408282786770323810	     -0.46314831155010383000	    -52.88742397781188500000	      0.03947003761059789800	     -0.02039895374057809600	     17.19336394075348900000	     -3.66613263116904430000	      0.00000000000000000000	      0.00000000000000000000	    -15.13343364529518800000	      3.84768361943865100000	     -6.07569885346951020000
      0.80700000000000005000	      0.01890607783170205800	      0.60541599874822183000	      1.01809635346468010000	      4.57088691783853650000	     -0.43129199177682404000	      3.50931891756207250000	     16.52049584971030100000	     -0.68802648037971759000	     -7.00051064897028040000	     -0.00030505738032199749	     -0.45669488142945175000	    -23.81037732285578200000	      0.04574244053014058600	     -0.02150586828734685600	     14.51309800798783000000	      3.03774210909152750000	      0.00000000000000000000	      0.00000000000000000000	     -5.43520026487893570000	     -2.62268029606069320000	      0.33275137095414997000	      0.00411638098289787790	     -0.46323629405258726000	    -53.20373062163257300000	      0.03939172140240995000	     -0.02038837379937506400	     17.20516291989629200000	     -3.79301790848475220000	      0.00000000000000000000	      0.00000000000000000000	    -15.12991324272833900000	      3.87822703468581320000	     -6.04571549580730230000
      0.80800000000000005000	      0.01912057205019123200	      0.60542055100947589000	      1.01824974159705710000	      4.57259933868828750000	     -0.45852455509392903000	      3.50805975361926370000	     16.43514677495752400000	     -0.64034942611370516000	     -7.00695949771382230000	     -0.00030901379188054515	     -0.45669193240825134000	    -23.79132509185862100000	      0.04574570206237881700	     -0.02150660480603860900	     14.50937194960662600000	      3.09709483407156090000	      0.00000000000000000000	      0.00000000000000000000	     -5.24563852139839160000	     -2.68680621357254750000	      0.27104627147387961000	      0.00414993409809251770	     -0.46332427655507069000	    -53.52003726545326900000	      0.03931340519422200900	     -0.02037779385817203200	     17.21696189903909900000	     -3.91990318580046000000	      0.00000000000000000000	      0.00000000000000000000	    -15.12639284016149000000	      3.90877044993297540000	     -6.01573213814509340000
